<mxfile host="app.diagrams.net" modified="2021-03-17T03:27:01.284Z" agent="5.0 (Windows NT 10.0; Win64; x64) AppleWebKit/537.36 (KHTML, like Gecko) Chrome/89.0.4389.90 Safari/537.36 Edg/89.0.774.54" etag="Sv7E6-bDAtutUAF4zny1" version="14.4.8" type="github">
  <diagram id="DDgjxQKJfiOhIVl6Hc1I" name="Page-1">
    <mxGraphModel dx="1038" dy="580" grid="1" gridSize="10" guides="1" tooltips="1" connect="1" arrows="1" fold="1" page="1" pageScale="1" pageWidth="827" pageHeight="1169" math="0" shadow="0">
      <root>
        <mxCell id="0" />
        <mxCell id="1" parent="0" />
        <mxCell id="NWw4KDLJ7gm6kiCqfz8Z-1" value="HinhChuNhat" style="swimlane;fontStyle=1;align=center;verticalAlign=top;childLayout=stackLayout;horizontal=1;startSize=26;horizontalStack=0;resizeParent=1;resizeParentMax=0;resizeLast=0;collapsible=1;marginBottom=0;" vertex="1" parent="1">
          <mxGeometry x="280" y="140" width="210" height="180" as="geometry" />
        </mxCell>
        <mxCell id="NWw4KDLJ7gm6kiCqfz8Z-2" value="+ chieuDai: float&#xa;+ chieuRong: float&#xa;+chuVi: float&#xa;+dienTich: float" style="text;strokeColor=none;fillColor=none;align=left;verticalAlign=top;spacingLeft=4;spacingRight=4;overflow=hidden;rotatable=0;points=[[0,0.5],[1,0.5]];portConstraint=eastwest;" vertex="1" parent="NWw4KDLJ7gm6kiCqfz8Z-1">
          <mxGeometry y="26" width="210" height="74" as="geometry" />
        </mxCell>
        <mxCell id="NWw4KDLJ7gm6kiCqfz8Z-3" value="" style="line;strokeWidth=1;fillColor=none;align=left;verticalAlign=middle;spacingTop=-1;spacingLeft=3;spacingRight=3;rotatable=0;labelPosition=right;points=[];portConstraint=eastwest;" vertex="1" parent="NWw4KDLJ7gm6kiCqfz8Z-1">
          <mxGeometry y="100" width="210" height="8" as="geometry" />
        </mxCell>
        <mxCell id="NWw4KDLJ7gm6kiCqfz8Z-4" value="+ HinhChuNhat()&#xa;+ HinhChuNhat(cDai, cRong)&#xa;+ tinhDienTich&#xa;+ tinhChuVi" style="text;strokeColor=none;fillColor=none;align=left;verticalAlign=top;spacingLeft=4;spacingRight=4;overflow=hidden;rotatable=0;points=[[0,0.5],[1,0.5]];portConstraint=eastwest;" vertex="1" parent="NWw4KDLJ7gm6kiCqfz8Z-1">
          <mxGeometry y="108" width="210" height="72" as="geometry" />
        </mxCell>
      </root>
    </mxGraphModel>
  </diagram>
</mxfile>
